<?xml version="1.0" encoding="UTF-8"?>
<svg width="14px" height="14px" viewBox="0 0 14 14" version="1.1" xmlns="http://www.w3.org/2000/svg" xmlns:xlink="http://www.w3.org/1999/xlink">
    <!-- Generator: Sketch 64 (93537) - https://sketch.com -->
    <title>Group 12</title>
    <desc>Created with Sketch.</desc>
    <g id="Page-1" stroke="none" stroke-width="1" fill="none" fill-rule="evenodd">
        <g id="KAYAFund-list" transform="translate(-911.000000, -302.000000)" fill="#00B464">
            <g id="Group-7" transform="translate(164.000000, 302.000000)">
                <g id="Group-10" transform="translate(691.000000, 0.000000)">
                    <g id="Group-12" transform="translate(56.000000, 0.000000)">
                        <rect id="Rectangle-2" opacity="0.1" x="0" y="0" width="14" height="14" rx="2"></rect>
                        <path d="M10.2611686,6.52452455 L7.40398502,3.66735752 C7.18084037,3.44421416 6.81911524,3.44421416 6.5959706,3.66735752 L3.73878706,6.52452455 C3.51564241,6.7476679 3.51564241,7.10939094 3.73878706,7.3325343 C3.9619317,7.55567765 4.32365683,7.55567765 4.54680147,7.3325343 L6.42855109,5.45079556 L6.42855109,10.9285599 C6.42855109,11.2442784 6.68427418,11.5 6.99999445,11.5 C7.31571472,11.5 7.57142857,11.2442784 7.57142857,10.9285599 L7.57142857,5.45079556 L9.45318743,7.3325343 C9.5646155,7.44397282 9.71090785,7.49996394 9.85720019,7.49996394 C10.0034925,7.49996394 10.1497738,7.44425022 10.2612129,7.3325343 C10.4843576,7.10939094 10.4843576,6.7476679 10.2612129,6.52452455 L10.2611686,6.52452455 Z" id="Path" transform="translate(7.000000, 7.500000) rotate(-315.000000) translate(-7.000000, -7.500000) "></path>
                    </g>
                </g>
            </g>
        </g>
    </g>
</svg>
