<?xml version="1.0" encoding="UTF-8"?>
<svg width="12px" height="13px" viewBox="0 0 12 13" version="1.1" xmlns="http://www.w3.org/2000/svg" xmlns:xlink="http://www.w3.org/1999/xlink">
    <!-- Generator: Sketch 64 (93537) - https://sketch.com -->
    <title>Combined Shape</title>
    <desc>Created with Sketch.</desc>
    <g id="Page-1" stroke="none" stroke-width="1" fill="none" fill-rule="evenodd">
        <g id="KAYAWallet-popup" transform="translate(-821.000000, -694.000000)" fill="#FFFFFF" fill-rule="nonzero">
            <g id="Group-9" transform="translate(0.000000, 429.000000)">
                <g id="Group-16" transform="translate(120.000000, 100.000000)">
                    <g id="Group-15" transform="translate(409.000000, 16.000000)">
                        <g id="钱包-copy-5" transform="translate(215.000000, 135.000000)">
                            <path d="M80.6242985,15.7486527 C80.7631138,15.9873679 80.6821289,16.2934168 80.4434137,16.432232 C78.9392222,17.3069346 78,18.8864227 78,20.6237668 C78,23.3142569 80.2360613,25.5 83,25.5 C85.7639387,25.5 88,23.3142569 88,20.6237668 C88,18.8976949 87.0730188,17.3270387 85.5844897,16.4485786 C85.3466727,16.3082301 85.2676589,16.0016664 85.4080073,15.7638494 C85.5483558,15.5260324 85.8549195,15.4470186 86.0927365,15.587367 C87.8814343,16.6429728 89,18.5382453 89,20.6237668 C89,23.8716999 86.3111935,26.5 83,26.5 C79.6888065,26.5 77,23.8716999 77,20.6237668 C77,18.5246376 78.1332716,16.618817 79.9407192,15.567768 C80.1794343,15.4289527 80.4854832,15.5099375 80.6242985,15.7486527 Z M83,14 C83.2761424,14 83.5,14.2238576 83.5,14.5 L83.5,19.5 C83.5,19.7761424 83.2761424,20 83,20 C82.7238576,20 82.5,19.7761424 82.5,19.5 L82.5,14.5 C82.5,14.2238576 82.7238576,14 83,14 Z" id="Combined-Shape"></path>
                        </g>
                    </g>
                </g>
            </g>
        </g>
    </g>
</svg>