<?xml version="1.0" encoding="UTF-8"?>
<svg width="15px" height="15px" viewBox="0 0 15 15" version="1.1" xmlns="http://www.w3.org/2000/svg" xmlns:xlink="http://www.w3.org/1999/xlink">
    <!-- Generator: Sketch 64 (93537) - https://sketch.com -->
    <title>copy</title>
    <desc>Created with Sketch.</desc>
    <g id="Page-1" stroke="none" stroke-width="1" fill="none" fill-rule="evenodd" opacity="0.200000003">
        <g id="KAYAFund-Initial" transform="translate(-559.000000, -178.000000)" fill-rule="nonzero">
            <g id="Group-41" transform="translate(164.000000, 172.000000)">
                <g id="02">
                    <g id="Group-14" transform="translate(95.000000, 7.000000)">
                        <g id="copy" transform="translate(300.000000, 0.000000)">
                            <path d="M13.5,12 L2.5,12 C2.23333334,12 2,11.7666667 2,11.5 L2,0.5 C2,0.23333334 2.23333334,0 2.5,0 L13.5,0 C13.7666667,0 14,0.23333334 14,0.5 L14,11.5 C14,11.7666667 13.7666667,12 13.5,12 Z" id="Path" stroke="#999999"></path>
                            <path d="M11.5,14 L0.5,14 C0.23333334,14 0,13.7666667 0,13.5 L0,2.5 C0,2.23333334 0.23333334,2 0.5,2 L11.5,2 C11.7666667,2 12,2.23333334 12,2.5 L12,13.5 C12,13.8 11.8,14 11.5,14 Z" id="Path" fill="#999999"></path>
                        </g>
                    </g>
                </g>
            </g>
        </g>
    </g>
</svg>
