<?xml version="1.0" encoding="UTF-8"?>
<svg width="20px" height="20px" viewBox="0 0 20 20" version="1.1" xmlns="http://www.w3.org/2000/svg" xmlns:xlink="http://www.w3.org/1999/xlink">
    <!-- Generator: Sketch 64 (93537) - https://sketch.com -->
    <title>Path</title>
    <desc>Created with Sketch.</desc>
    <g id="Page-1" stroke="none" stroke-width="1" fill="none" fill-rule="evenodd">
        <g id="KAYAFund-Complete2" transform="translate(-710.000000, -402.000000)" fill="#222222">
            <g id="Group-20" transform="translate(516.000000, 220.000000)">
                <g id="Group-19" transform="translate(110.000000, 152.000000)">
                    <g id="Group-17" transform="translate(54.000000, 0.000000)">
                        <path d="M49.3370071,46.7550609 C49.8816277,47.2955166 50.0472528,48.1109994 49.7566564,48.8212744 C49.46606,49.5315493 48.7764657,49.9967503 48.0094107,50 C47.5052978,50.0028844 47.0207664,49.8048687 46.6628487,49.4496623 L39.9490041,42.7321348 L33.2541252,49.4496623 C32.8962074,49.8048687 32.4116761,50.0028844 31.9075632,50 C31.4034502,50.0028844 30.9189189,49.8048687 30.5610011,49.4496623 C30.2019571,49.0933552 30,48.6083348 30,48.1023616 C30,47.5963884 30.2019571,47.111368 30.5610011,46.7550609 L37.2748457,40.0565094 L30.5610011,33.3389819 C29.8256576,32.5988443 29.8256576,31.4034942 30.5610011,30.6633566 C30.9171129,30.3041156 31.4018674,30.1020477 31.9075632,30.1020477 C32.4132589,30.1020477 32.8980134,30.3041156 33.2541252,30.6633566 L39.9490041,37.361908 L46.6628487,30.6633566 C47.1263503,30.1218249 47.8541168,29.8859414 48.5469336,30.0526875 C49.2397503,30.2194337 49.7806866,30.7606667 49.9473414,31.4538635 C50.1139961,32.1470603 49.8782419,32.8752261 49.3370071,33.3389819 L42.6421282,40.0565094 L49.3370071,46.7550609 Z" id="Path"></path>
                    </g>
                </g>
            </g>
        </g>
    </g>
</svg>