<?xml version="1.0" encoding="UTF-8"?>
<svg width="12px" height="12px" viewBox="0 0 12 12" version="1.1" xmlns="http://www.w3.org/2000/svg" xmlns:xlink="http://www.w3.org/1999/xlink">
    <!-- Generator: Sketch 64 (93537) - https://sketch.com -->
    <title>Combined Shape</title>
    <desc>Created with Sketch.</desc>
    <g id="Page-1" stroke="none" stroke-width="1" fill="none" fill-rule="evenodd">
        <g id="KAYAWallet-popup" transform="translate(-705.000000, -694.000000)" fill="#FFFFFF" fill-rule="nonzero">
            <g id="Group-9" transform="translate(0.000000, 429.000000)">
                <g id="Group-16" transform="translate(120.000000, 100.000000)">
                    <g id="Group-15" transform="translate(409.000000, 16.000000)">
                        <g id="钱包-copy-5" transform="translate(30.000000, 135.000000)">
                            <path d="M151.287176,14.3892659 C151.352021,14.6612928 151.183543,14.9342569 150.910871,14.9989482 C150.540454,15.0868292 150.18257,15.2160126 149.842906,15.3836413 C148.125142,16.2313785 147.014974,17.9785463 147.014974,19.9245828 C147.014974,22.7207164 149.287069,24.9874305 152.089842,24.9874305 C154.413632,24.9874305 156.424061,23.4158033 157.001281,21.2044567 C157.071912,20.9338676 157.349047,20.7716338 157.620278,20.8420974 C157.89151,20.9125611 158.054129,21.189039 157.983498,21.4596282 C157.290532,24.1144002 154.878469,26 152.089842,26 C148.726515,26 146,23.2799431 146,19.9245828 C146,17.5897644 147.33234,15.4929458 149.392869,14.4760498 C149.80089,14.2746864 150.230947,14.1194508 150.676046,14.0138515 C150.948719,13.9491602 151.222331,14.1172389 151.287176,14.3892659 Z M157.483766,14 C157.768874,14 158,14.2311256 158,14.5162334 L158,14.5162334 L158,18.412335 C158,18.5492486 157.945611,18.6805546 157.848799,18.7773671 C157.751986,18.8741797 157.62068,18.9285684 157.483766,18.9285684 C157.346853,18.9285684 157.215546,18.8741797 157.118734,18.7773672 C157.021921,18.6805546 156.967532,18.5492486 156.967532,18.412372 L156.967532,18.412372 L156.967143,15.8032132 L152.930645,19.8420247 C152.848435,19.9235871 152.742953,19.9762781 152.631819,19.993668 L152.631819,19.993668 L152.547683,20 C152.402931,20.0008191 152.263807,19.9439777 152.16105,19.8420301 C152.057974,19.7397717 152,19.6005839 152,19.4553883 C152,19.3101927 152.057974,19.1710049 152.160106,19.0696865 L152.160106,19.0696865 L156.195714,15.0307137 L153.587662,15.0324669 C153.334233,15.0324669 153.123456,14.8498492 153.079746,14.6090271 L153.079746,14.6090271 L153.071429,14.5162335 C153.071429,14.2311256 153.302554,14 153.587662,14 L153.587662,14 Z" id="Combined-Shape"></path>
                        </g>
                    </g>
                </g>
            </g>
        </g>
    </g>
</svg>