<?xml version="1.0" encoding="UTF-8"?>
<svg width="26px" height="26px" viewBox="0 0 26 26" version="1.1" xmlns="http://www.w3.org/2000/svg" xmlns:xlink="http://www.w3.org/1999/xlink">
    <!-- Generator: Sketch 64 (93537) - https://sketch.com -->
    <title>Group 37</title>
    <desc>Created with Sketch.</desc>
    <g id="Page-1" stroke="none" stroke-width="1" fill="none" fill-rule="evenodd">
        <g id="KAYAFund-Initial" transform="translate(-1244.000000, -171.000000)">
            <g id="Group-42" transform="translate(956.000000, 172.000000)">
                <g id="Group-38" transform="translate(282.000000, 0.000000)">
                    <g id="Group-37" transform="translate(7.000000, 0.000000)">
                        <rect id="Rectangle" stroke="#2B878C" x="0" y="0" width="24" height="24" rx="5"></rect>
                        <path d="M17.5537472,13 L17.6143011,13.0045087 C17.8321174,13.0372127 18,13.2438549 18,13.4938943 L18,13.4938943 L17.9959262,13.5609128 C17.9663769,13.801983 17.7796676,13.9877885 17.5537472,13.9877885 L17.5537472,13.9877885 L7.56304006,13.98713 L8.66446494,15.1484049 L8.70888807,15.2026091 C8.84275977,15.3923815 8.8344444,15.6670738 8.67994981,15.8466666 C8.51000575,16.0442188 8.22753919,16.0518918 8.04904308,15.8638047 L8.04904308,15.8638047 L6.13943985,13.8515941 L6.09738742,13.8011956 C5.86893131,13.4883693 6.06548407,13 6.44715078,13 L6.44715078,13 L17.5537472,13 Z M15.3200502,8.15333336 C15.4899942,7.95578119 15.7724608,7.94810824 15.9509569,8.13619535 L15.9509569,8.13619535 L17.8605602,10.1484059 L17.9026126,10.1988044 C18.1310687,10.5116307 17.9345159,11 17.5528492,11 L17.5528492,11 L6.44625278,11 L6.38569892,10.9954913 C6.1678826,10.9627873 6,10.7561451 6,10.5061057 L6,10.5061057 L6.00407376,10.4390872 C6.03362309,10.198017 6.22033239,10.0122115 6.44625278,10.0122115 L6.44625278,10.0122115 L16.4363649,10.0122115 L15.3355351,8.85159505 L15.2911119,8.79739094 C15.1572402,8.6076185 15.1655556,8.33292625 15.3200502,8.15333336 Z" id="Combined-Shape" fill="#2B878C" fill-rule="nonzero"></path>
                    </g>
                </g>
            </g>
        </g>
    </g>
</svg>
